# xmcd
#
# Track frame offsets: 
#        150
#        13595
#        30638
#        45703
#        62875
#        77541
#        93252
#        111378
#        126536
#        147771
#        163853
#        179680
#        193709
#        214644
#        240154
#        256734
#        274445
#        289102
#        312159
#        338874
#
# Disc length: 4774 seconds
#
# Revision: 0
# Processed by: cddbd v1.5.2PL0 Copyright (c) Steve Scherf et al.
# Submitted via: ExactAudioCopy v1.1
#
DISCID=2612a414
DTITLE=Various Artist - (40 Keer Blijven) Pompen II - CD 1
DYEAR=2017
DGENRE=Hip-Hop
TTITLE0=Jebroer, DJ Paul Elstak and Dr Phunk - Engeltje
TTITLE1=Kraantje Pappie Feat. MC Jiggy Djé - Feesttent (DJ Paul Elstak
TTITLE1=Culture Clash Remix)
TTITLE2=Scooter Feat. New Kids - Friends Turbo (Movie Version)
TTITLE3=Jebroer Feat. Stepherd, Skinto and Jayh - Banaan (Bigger Better 
TTITLE3=Anthem)
TTITLE4=The Opposites Feat. Gers and Sef - Broodje Bakpao
TTITLE5=Dune - Hardcore Vibes
TTITLE6=Nakatomi - Children Of The Night
TTITLE7=Da Rick - Rumble
TTITLE8=Party Crasher - The Jumper
TTITLE9=Jeckyll and Hyde - Frozen Flame
TTITLE10=Dimitri Vegas and Like Mike Vs. Ummet Ozcan - The Hum
TTITLE11=R3hab and Headhunterz - Won't Stop Rocking
TTITLE12=Showtek - Puta Madre
TTITLE13=Tatanka - Afrika
TTITLE14=Brennan Heart and The Prophet - Wake Up!
TTITLE15=Armin Van Buuren Vs. Vini Vici Feat. Hilight Tribe - Great Sp
TTITLE15=irit (Wildstylez Remix)
TTITLE16=The Prophet - One Moment
TTITLE17=Coone Feat. Da Tweekaz - D.W.X
TTITLE18=DJ Paul Elstak - I'm Not An Addict
TTITLE19=Neophyte Vs. The Stunned Guys - Army Of Hardcore
EXTD=
EXTT0=
EXTT1=
EXTT2=
EXTT3=
EXTT4=
EXTT5=
EXTT6=
EXTT7=
EXTT8=
EXTT9=
EXTT10=
EXTT11=
EXTT12=
EXTT13=
EXTT14=
EXTT15=
EXTT16=
EXTT17=
EXTT18=
EXTT19=
PLAYORDER=
